<svg width="36" height="36" viewBox="0 0 36 36" fill="none" xmlns="http://www.w3.org/2000/svg">
<g clip-path="url(#clip0_335_43)">
<path fill-rule="evenodd" clip-rule="evenodd" d="M21.5773 2.96102C24.8922 2.10811 28.892 3.28437 31.3286 5.87875H34.0604C34.2757 5.87895 34.4875 5.93375 34.6759 6.03804C34.8642 6.14232 35.0231 6.29268 35.1375 6.47504C35.252 6.65741 35.3183 6.86582 35.3303 7.0808C35.3423 7.29577 35.2996 7.51027 35.2061 7.70425L32.5201 13.2724C33.2839 19.7571 30.7455 25.9592 25.6408 29.6254C20.4214 33.3757 12.7401 34.3203 3.63049 30.5904C3.13536 30.4036 2.71073 30.0672 2.41562 29.628C2.12052 29.1887 1.96962 28.6684 1.9839 28.1394C1.99818 27.6105 2.17694 27.0991 2.49531 26.6764C2.81368 26.2537 3.25586 25.9407 3.76034 25.7809C5.15765 25.4014 6.49714 24.8344 7.7423 24.0955C4.95464 22.4204 2.77204 19.9021 1.51018 16.9046C0.248326 13.9072 -0.0273774 10.5861 0.722948 7.42164C0.779645 6.94884 0.967795 6.50143 1.26603 6.13021C1.56426 5.75899 1.96062 5.47884 2.41009 5.32159C2.85956 5.16435 3.34411 5.1363 3.80872 5.24064C4.27333 5.34498 4.69937 5.57752 5.03844 5.91185C8.63596 9.44826 11.7803 10.9097 13.9597 11.508C14.8049 11.7397 15.5127 11.8441 16.0525 11.8873C15.8845 9.64685 16.2664 7.77808 17.1116 6.30139C18.1402 4.50136 19.7773 3.4244 21.5773 2.96102Z" fill="#8FBFFA"/>
</g>
<defs>
<clipPath id="clip0_335_43">
<rect width="35.6442" height="35.6442" fill="white"/>
</clipPath>
</defs>
</svg>
